PathFileType	4	(X/Y/Z)	G:\Shared drives\HIT\Data\HapticPilot\Subject1\Edited\walking_FB1_noFB1.trc
DataRate	CameraRate	NumFrames	NumMarkers	Units	OrigDataRate	OrigDataStartFrame	OrigNumFrames
50.00	50.00	      5	34	mm	50.00	394	      3148
Frame#	Time	r_knee			r_shank(antsup)			r_ankle			r_calc			r_5meta			r_toe			L_knee			L_shank(ant_sup)			L_ankle			L_calc			L_5meta			L_toe			r_sh2			r_sh3			r_sh4			L_sh2			L_sh3			r_thigh1			r_thigh2			r_thigh3			r_thigh4			r_thigh5			L_thigh1			L_thigh2			L_thigh3			L_thigh4			r.ASIS			r.PSIS			L.ASIS			L.PSIS			C7			R_Shoulder			L_Shoulder			Sternum			
		X1	Y1	Z1	X2	Y2	Z2	X3	Y3	Z3	X4	Y4	Z4	X5	Y5	Z5	X6	Y6	Z6	X7	Y7	Z7	X8	Y8	Z8	X9	Y9	Z9	X10	Y10	Z10	X11	Y11	Z11	X12	Y12	Z12	X13	Y13	Z13	X14	Y14	Z14	X15	Y15	Z15	X16	Y16	Z16	X17	Y17	Z17	X18	Y18	Z18	X19	Y19	Z19	X20	Y20	Z20	X21	Y21	Z21	X22	Y22	Z22	X23	Y23	Z23	X24	Y24	Z24	X25	Y25	Z25	X26	Y26	Z26	X27	Y27	Z27	X28	Y28	Z28	X29	Y29	Z29	X30	Y30	Z30	X31	Y31	Z31	X32	Y32	Z32	X33	Y33	Z33	X34	Y34	Z34	

394	7.860	755.37421	418.04745	574.76404	753.73749	416.39334	484.90970	654.39673	464.73645	115.64853	563.51111	513.52435	81.50780	759.52515	442.53946	38.98627	801.08173	503.53607	72.52647	1027.00146	713.43353	581.22772	1082.77747	716.13538	479.40503	1117.46704	694.75140	121.99485	1062.19226	629.61243	69.39428	1285.40820	686.03400	126.16621	1249.91553	732.53333	74.30385	732.82764	424.80701	367.05707	678.81952	418.40594	496.13306	650.37604	425.75150	383.66876	991.84131	718.41571	470.70950	1018.82343	714.46313	350.88239	877.97095	381.42767	888.44293	868.20099	389.81500	773.88220	817.32318	383.66150	745.64270	764.65027	373.39481	892.24420	759.03491	392.08588	776.68469	995.97308	726.36578	858.73730	1056.05627	722.83350	733.94971	889.32184	746.40900	810.26556	950.08832	730.94086	692.92078	921.79230	421.56635	1087.22998	737.74200	522.48016	1112.23657	936.36548	675.11493	1093.16211	745.00653	604.63440	1107.60779	837.80963	553.56885	1601.35254	894.67786	394.92386	1569.44067	887.74603	738.59723	1553.05078	972.98376	558.64612	1515.71973	
395	7.880	742.12390	419.12323	574.42731	738.32819	417.14041	484.42926	630.53754	465.02118	117.32109	539.35516	513.83026	83.94720	734.77032	442.55020	39.02689	777.01819	503.47910	71.79324	1013.16730	710.08173	572.51758	1080.25891	714.08777	478.06961	1150.42371	699.94806	123.84346	1100.36938	637.25122	63.73999	1317.36707	686.98010	146.18867	1288.04443	735.02283	91.61195	714.47675	425.30841	366.94510	663.74945	419.51462	497.43317	632.61578	426.73730	385.68942	990.87994	715.89563	460.96310	1029.54553	714.75220	343.71292	873.27356	381.65079	884.59399	859.55414	390.49210	770.61517	808.21118	384.49063	744.10980	760.07556	375.44400	892.10864	750.82507	393.99008	776.72455	986.57971	728.16736	846.44629	1040.27075	723.85938	718.56738	877.37408	741.63251	803.15314	935.40894	729.52850	680.08966	923.08350	423.98062	1082.42944	738.87500	524.64252	1108.40173	936.48376	677.81677	1087.63867	745.81409	607.19989	1103.38770	838.47797	554.53894	1596.53003	895.46637	396.27380	1563.95129	887.79565	740.12744	1548.96082	973.61731	560.31097	1511.02148	
396	7.900	733.21301	419.87689	573.31738	726.93195	417.69125	483.30890	607.41003	465.06644	119.40716	515.56952	513.51984	87.33778	709.59167	442.65036	38.78404	752.83527	503.49881	70.85788	998.98962	710.92480	565.48218	1075.98169	711.45746	476.66516	1172.78455	699.91077	129.01248	1125.65771	642.57690	60.62543	1336.70776	681.62006	163.25450	1313.12512	734.48547	110.49847	699.53357	425.71280	366.53668	652.71454	419.65045	498.40210	618.41321	426.63248	387.68387	988.00616	715.15735	453.74948	1035.55115	716.56665	338.05042	870.34869	382.32568	880.82709	853.90820	391.47299	767.43610	801.69196	385.42163	742.24603	757.38788	377.34598	891.14819	745.23340	395.60818	776.20447	978.78827	731.32587	836.28125	1028.31921	725.40338	707.03125	867.59363	739.33008	796.21442	921.60138	722.10431	671.74420	924.64648	426.30576	1077.73328	740.00128	527.10101	1104.63745	936.68658	680.31934	1082.39551	746.35284	609.67358	1098.91138	839.20776	556.28571	1591.60620	896.42493	397.95828	1558.09424	887.84985	742.11816	1544.45459	974.55029	562.52655	1506.27332	
397	7.920	728.56293	420.07440	571.09473	719.42419	417.82349	481.00244	585.24567	464.11295	121.98521	492.02393	512.12415	91.88332	684.88800	442.54886	38.55507	728.94977	503.33771	69.76658	997.52509	711.15607	562.09698	1073.23706	713.32898	471.52042	1174.17773	695.67352	125.07572	1129.49707	638.07800	55.32910	1335.84534	675.75354	166.98621	1315.92834	727.54108	111.91521	688.13104	425.61801	365.82645	645.77515	418.30576	498.74057	607.47003	425.05862	389.37567	985.11401	715.67456	447.68445	1032.52747	713.32697	333.39679	869.76477	383.27472	876.93073	851.76709	392.40363	763.95123	799.19977	386.19214	739.36823	756.85718	378.73785	888.89697	743.17963	396.50797	774.05695	976.93512	736.54114	832.33087	1025.93933	728.84418	702.76636	865.78357	739.86761	793.25409	918.79126	721.13342	668.97162	926.02722	428.27139	1073.52710	740.66968	529.15454	1100.49316	935.31464	682.64014	1077.54175	745.74567	612.12811	1094.63025	840.25665	558.39160	1587.07642	897.63971	399.85056	1552.42505	888.01398	744.62604	1539.94299	975.85400	565.30292	1501.78455	
398	7.940	727.09216	420.42886	567.99890	715.18085	418.12848	477.90625	563.66846	461.67004	125.07568	469.10257	509.26767	97.62079	660.39124	441.95679	38.08255	705.23523	502.67889	68.65639	1006.28204	710.09595	562.70593	1075.37695	712.26874	467.14896	1160.07642	692.53650	117.97802	1109.55408	637.49225	56.11715	1323.96252	667.65179	151.10608	1303.62427	718.97290	95.50200	678.69061	425.49368	363.65088	642.24854	416.43475	498.56158	599.37762	422.47015	390.93906	985.89880	713.19513	447.88449	1028.28003	710.69946	331.41861	871.42786	385.87064	872.88690	852.79968	393.81143	759.45422	800.61060	386.87622	735.60577	758.74969	379.57336	885.23615	744.29779	396.52127	770.29858	979.51160	739.94806	834.20068	1031.66748	732.96588	705.91791	869.33411	743.50037	792.40247	925.96198	725.62006	669.43634	927.79071	431.10547	1069.66296	741.67261	530.37354	1096.09460	934.22546	686.21039	1074.88586	744.98810	613.38678	1090.84375	841.97687	560.96478	1583.41040	899.78589	401.97568	1547.85364	887.38446	747.43506	1536.24438	977.33533	568.48853	1497.80737	
